<svg id="svg" version="1.1" xmlns="http://www.w3.org/2000/svg"
    xmlns:xlink="http://www.w3.org/1999/xlink"
    viewBox="0, 0, 400,128.45714285714286">
    <g id="svgg">
        <path id="path0"
            d="M136.457 8.229 C 136.613 8.480,137.457 8.686,138.333 8.686 C 142.791 8.686,142.753 8.293,142.556 52.387 C 142.380 91.628,142.691 88.686,138.714 88.686 C 137.377 88.686,136.155 88.891,136.000 89.143 C 135.814 89.444,139.676 89.580,147.287 89.542 C 155.691 89.500,158.056 89.380,155.928 89.105 C 154.318 88.896,152.775 88.501,152.500 88.226 C 152.148 87.874,151.963 75.915,151.876 47.749 L 151.752 7.771 143.963 7.771 C 138.887 7.771,136.273 7.931,136.457 8.229 M26.362 19.991 C 9.702 23.315,0.521 42.403,11.036 51.857 C 18.427 58.502,27.995 55.617,27.826 46.795 L 27.766 43.657 27.412 46.681 C 26.448 54.932,19.465 56.817,16.221 49.702 C 13.699 44.171,14.245 28.343,16.957 28.343 C 17.185 28.343,17.371 28.034,17.371 27.657 C 17.371 23.295,30.530 18.776,34.593 21.744 C 37.824 24.103,37.714 22.885,37.714 56.457 C 37.714 95.407,37.880 94.529,30.286 95.764 C 25.950 96.470,29.061 96.685,43.404 96.673 C 60.074 96.659,62.123 96.391,54.018 95.285 C 52.199 95.037,50.698 93.726,49.689 91.504 C 48.368 88.595,47.846 62.513,49.074 60.760 L 49.788 59.741 50.608 61.236 C 52.596 64.861,72.341 94.521,76.443 100.045 C 88.168 115.834,99.401 123.172,112.762 123.770 C 127.278 124.419,137.040 113.800,132.317 102.497 C 128.912 94.347,115.701 95.847,115.665 104.388 C 115.644 109.207,120.898 112.496,123.494 109.289 C 125.166 107.225,122.625 106.185,119.784 107.771 C 117.835 108.860,116.571 107.490,116.573 104.292 C 116.577 99.919,119.318 97.606,124.132 97.912 C 135.084 98.610,135.606 115.033,124.846 120.335 C 115.382 124.998,102.557 118.234,90.844 102.400 C 88.891 99.760,87.140 97.394,86.954 97.143 C 83.407 92.361,75.886 80.731,75.886 80.027 C 75.886 79.803,75.706 79.550,75.487 79.467 C 74.997 79.279,69.029 70.080,69.029 69.513 C 69.029 69.288,68.849 69.036,68.630 68.952 C 68.048 68.730,57.535 52.531,57.694 52.102 C 57.768 51.903,61.348 48.069,65.650 43.584 C 69.951 39.099,75.571 33.012,78.138 30.057 C 84.854 22.330,88.089 20.286,93.829 20.145 C 94.520 20.128,95.086 19.948,95.086 19.745 C 95.086 19.299,70.609 19.296,70.163 19.742 C 69.990 19.914,70.539 20.162,71.382 20.292 C 72.225 20.422,73.677 20.649,74.609 20.796 C 78.653 21.433,79.528 26.445,76.337 30.692 C 74.785 32.758,49.037 58.971,48.560 58.971 C 48.471 58.971,48.463 51.196,48.542 41.693 C 48.717 20.644,48.553 21.122,55.886 20.338 C 57.583 20.156,58.971 19.864,58.971 19.689 C 58.971 19.110,29.406 19.384,26.362 19.991 M292.213 20.828 C 287.936 23.824,290.189 30.306,295.314 29.748 C 301.486 29.076,301.400 20.114,295.223 20.114 C 294.128 20.114,292.774 20.435,292.213 20.828 M266.655 25.603 C 264.274 27.354,261.730 28.246,258.038 28.624 C 255.283 28.906,254.293 29.714,256.702 29.714 C 258.808 29.714,259.429 31.529,259.429 37.693 L 259.429 43.200 255.314 43.429 C 252.862 43.565,251.439 43.812,251.792 44.039 C 252.117 44.250,253.969 44.356,255.906 44.275 L 259.429 44.127 259.657 64.007 C 259.910 86.018,259.851 85.590,262.971 87.920 C 265.742 89.989,269.679 90.525,274.170 89.443 C 276.764 88.818,280.399 84.316,280.882 81.127 C 281.181 79.161,281.132 79.227,279.388 83.140 C 277.651 87.037,271.457 87.528,269.803 83.898 C 269.408 83.030,269.257 77.412,269.257 63.499 L 269.257 44.299 276.000 44.411 C 279.965 44.478,282.790 44.345,282.858 44.091 C 282.926 43.836,280.150 43.605,276.115 43.531 L 269.257 43.405 269.257 33.817 C 269.257 28.543,269.092 24.229,268.890 24.229 C 268.688 24.229,267.682 24.847,266.655 25.603 M103.075 44.053 C 86.753 49.342,80.650 66.099,90.063 79.780 C 103.389 99.149,133.554 90.126,133.647 66.743 C 133.713 50.364,118.482 39.060,103.075 44.053 M179.909 43.457 C 150.548 50.810,159.595 95.281,189.273 89.484 C 195.498 88.268,202.353 80.594,202.879 74.252 C 203.130 71.224,202.279 70.857,201.942 73.848 C 200.298 88.434,176.821 87.420,173.509 72.619 C 172.579 68.468,172.380 67.160,172.363 65.092 L 172.343 62.756 174.594 62.489 C 175.832 62.343,182.827 61.860,190.137 61.417 C 205.396 60.493,204.191 61.045,202.539 55.738 C 199.697 46.608,189.477 41.061,179.909 43.457 M228.686 43.450 C 211.127 46.582,202.496 65.657,212.035 80.248 C 222.448 96.175,247.361 91.897,249.539 73.807 C 249.939 70.482,249.410 68.750,248.933 71.826 C 246.972 84.481,234.419 88.618,224.925 79.737 C 215.620 71.034,217.325 50.443,227.742 45.715 C 232.264 43.663,239.168 44.859,242.598 48.288 C 244.906 50.597,245.114 51.325,243.263 50.627 C 239.019 49.025,236.374 57.088,240.452 59.197 C 245.445 61.779,249.987 55.780,247.373 50.057 C 246.291 47.688,243.933 45.416,241.867 44.750 C 240.966 44.460,240.023 44.101,239.771 43.953 C 238.581 43.250,231.587 42.933,228.686 43.450 M286.277 43.344 C 284.235 43.541,284.885 44.343,287.087 44.343 C 290.370 44.343,290.286 43.755,290.286 66.757 C 290.286 89.454,290.402 88.621,287.202 88.804 C 286.135 88.864,285.261 89.069,285.260 89.257 C 285.258 89.446,290.143 89.569,296.114 89.530 C 302.086 89.492,305.669 89.337,304.076 89.186 C 299.588 88.759,299.886 90.458,299.886 65.309 L 299.886 43.478 293.829 43.339 C 290.497 43.263,287.099 43.265,286.277 43.344 M342.057 43.328 C 337.152 43.441,333.616 44.343,338.080 44.343 C 341.683 44.343,343.186 46.153,342.752 49.970 C 342.492 52.262,330.994 79.305,330.507 78.771 C 330.320 78.567,329.911 77.577,329.597 76.571 C 329.283 75.566,327.079 69.806,324.698 63.771 C 322.317 57.737,320.328 52.594,320.277 52.343 C 320.226 52.091,319.958 51.474,319.680 50.971 C 319.403 50.469,319.146 49.907,319.109 49.724 C 319.073 49.540,318.620 48.434,318.103 47.266 C 317.056 44.899,317.337 44.363,319.630 44.350 C 320.307 44.346,320.987 44.137,321.143 43.886 C 321.328 43.587,318.176 43.429,312.027 43.429 C 306.066 43.429,302.629 43.596,302.629 43.886 C 302.629 44.137,303.097 44.343,303.670 44.343 C 305.326 44.343,306.438 45.419,307.749 48.293 C 311.372 56.235,314.196 62.652,319.089 74.057 C 325.138 88.158,326.031 90.057,326.613 90.057 C 327.277 90.057,328.082 88.315,335.776 70.227 C 345.003 48.536,347.249 44.343,349.642 44.343 C 350.155 44.343,350.688 44.159,350.828 43.933 C 351.182 43.360,348.567 43.179,342.057 43.328 M365.481 44.113 C 350.793 49.209,344.601 64.517,351.631 78.351 C 353.809 82.635,360.045 88.455,362.971 88.934 C 363.097 88.954,364.426 89.239,365.924 89.566 C 375.144 91.581,383.782 87.713,387.661 79.833 C 389.164 76.781,390.053 71.771,389.093 71.771 C 388.806 71.771,388.571 72.249,388.571 72.833 C 388.571 77.176,384.212 82.581,379.636 83.912 C 369.080 86.980,359.940 78.797,359.630 66.000 L 359.543 62.400 367.543 61.866 C 378.488 61.135,384.168 60.837,387.527 60.817 L 390.369 60.800 390.196 59.086 C 388.996 47.191,377.202 40.046,365.481 44.113 M115.200 44.983 C 127.009 50.800,125.690 85.730,113.534 89.106 C 111.297 89.727,107.115 89.745,106.738 89.135 C 106.580 88.880,106.281 88.776,106.073 88.904 C 104.382 89.950,99.001 83.596,97.564 78.857 C 95.137 70.852,96.268 50.895,99.205 49.905 C 99.454 49.821,99.657 49.485,99.657 49.158 C 99.657 48.506,102.657 45.641,104.209 44.810 C 107.048 43.291,111.921 43.368,115.200 44.983 M188.167 44.363 C 191.902 45.783,194.874 53.161,193.966 58.758 L 193.720 60.275 190.460 60.523 C 178.853 61.408,172.686 61.753,172.463 61.530 C 172.046 61.112,173.187 55.080,174.190 52.397 C 176.740 45.584,182.567 42.234,188.167 44.363 M375.443 44.513 C 378.968 46.014,380.954 50.068,380.998 55.847 C 381.015 58.026,380.923 59.915,380.794 60.044 C 380.599 60.240,374.746 60.644,361.600 61.372 L 359.543 61.486 359.701 59.429 C 360.518 48.781,368.255 41.450,375.443 44.513 "
            stroke="none" fill="#fff" fill-rule="evenodd"></path>
    </g>
</svg>